STARTFONT 2.3
FONT -FontForge-Righteous-Book-R-Normal--8-80-72-72-P-43-ISO10646-1
SIZE 8 72 72  4
FONTBOUNDINGBOX 11 10 -2 -2
COMMENT "Generated by fontforge, http://fontforge.sourceforge.net"
COMMENT "Copyright (c) 2011 by Brian J. Bonislawsky DBA Astigmatic (AOETI) (astigma@astigmatic.com), with ReservedFont Name "Righteous""
STARTPROPERTIES 40
FOUNDRY "FontForge"
FAMILY_NAME "Righteous"
WEIGHT_NAME "Book"
SLANT "R"
SETWIDTH_NAME "Normal"
ADD_STYLE_NAME ""
PIXEL_SIZE 8
POINT_SIZE 80
RESOLUTION_X 72
RESOLUTION_Y 72
SPACING "P"
AVERAGE_WIDTH 43
CHARSET_REGISTRY "ISO10646"
CHARSET_ENCODING "1"
FONTNAME_REGISTRY ""
CHARSET_COLLECTIONS "ISO8859-2 ISO8859-9 ISO8859-4 ISO10646-1"
BITS_PER_PIXEL 4
FONT_NAME "Righteous-Regular"
FACE_NAME "Righteous"
COPYRIGHT "Copyright (c) 2011 by Brian J. Bonislawsky DBA Astigmatic (AOETI) (astigma@astigmatic.com), with ReservedFont Name "Righteous""
FONT_VERSION "1.000"
FONT_ASCENT 6
FONT_DESCENT 2
UNDERLINE_POSITION -1
UNDERLINE_THICKNESS 1
X_HEIGHT 4
CAP_HEIGHT 5
RAW_ASCENT 799
RAW_DESCENT 200
NORM_SPACE 2
RELATIVE_WEIGHT 40
RELATIVE_SETWIDTH 50
SUPERSCRIPT_X 0
SUPERSCRIPT_Y 3
SUPERSCRIPT_SIZE 5
SUBSCRIPT_X 0
SUBSCRIPT_Y 1
SUBSCRIPT_SIZE 5
AVG_LOWERCASE_WIDTH 43
AVG_UPPERCASE_WIDTH 50
ENDPROPERTIES
CHARS 372
STARTCHAR space
ENCODING 32
SWIDTH 279 0
DWIDTH 2 0
BBX 1 1 0 0
BITMAP
00
ENDCHAR
STARTCHAR exclam
ENCODING 33
SWIDTH 274 0
DWIDTH 2 0
BBX 2 7 0 -1
BITMAP
57
8B
7A
69
35
7A
12
ENDCHAR
STARTCHAR quotedbl
ENCODING 34
SWIDTH 409 0
DWIDTH 3 0
BBX 3 3 0 3
BITMAP
5780
89C0
1120
ENDCHAR
STARTCHAR numbersign
ENCODING 35
SWIDTH 561 0
DWIDTH 4 0
BBX 5 5 0 0
BITMAP
045800
3EEE10
4EB900
7BE400
111000
ENDCHAR
STARTCHAR dollar
ENCODING 36
SWIDTH 458 0
DWIDTH 4 0
BBX 4 6 0 0
BITMAP
0420
2BA1
9A81
39D4
8DC1
0740
ENDCHAR
STARTCHAR percent
ENCODING 37
SWIDTH 685 0
DWIDTH 5 0
BBX 6 6 0 0
BITMAP
4A2350
A68B20
8CA800
02B990
067B92
1C0CC1
ENDCHAR
STARTCHAR ampersand
ENCODING 38
SWIDTH 485 0
DWIDTH 4 0
BBX 4 6 0 0
BITMAP
0250
3CE5
7820
6C80
6A73
06B2
ENDCHAR
STARTCHAR quotesingle
ENCODING 39
SWIDTH 238 0
DWIDTH 2 0
BBX 2 3 0 3
BITMAP
54
86
11
ENDCHAR
STARTCHAR parenleft
ENCODING 40
SWIDTH 351 0
DWIDTH 3 0
BBX 3 8 0 -1
BITMAP
0430
2E20
7A00
A700
A700
8900
3E10
0960
ENDCHAR
STARTCHAR parenright
ENCODING 41
SWIDTH 351 0
DWIDTH 3 0
BBX 3 8 0 -1
BITMAP
5300
5D00
0D40
0A70
0A70
0D50
3E10
8700
ENDCHAR
STARTCHAR asterisk
ENCODING 42
SWIDTH 589 0
DWIDTH 5 0
BBX 5 5 0 2
BITMAP
029000
5AE920
3DFA10
2EBC00
040400
ENDCHAR
STARTCHAR plus
ENCODING 43
SWIDTH 485 0
DWIDTH 4 0
BBX 4 4 0 1
BITMAP
0440
4BA3
7DD6
0760
ENDCHAR
STARTCHAR comma
ENCODING 44
SWIDTH 264 0
DWIDTH 2 0
BBX 2 2 0 -1
BITMAP
8A
37
ENDCHAR
STARTCHAR hyphen
ENCODING 45
SWIDTH 528 0
DWIDTH 4 0
BBX 4 2 0 2
BITMAP
3554
6BB8
ENDCHAR
STARTCHAR period
ENCODING 46
SWIDTH 263 0
DWIDTH 2 0
BBX 2 2 0 -1
BITMAP
89
12
ENDCHAR
STARTCHAR slash
ENCODING 47
SWIDTH 490 0
DWIDTH 4 0
BBX 4 6 0 0
BITMAP
0055
00D4
05C0
0B60
2E10
9900
ENDCHAR
STARTCHAR zero
ENCODING 48
SWIDTH 642 0
DWIDTH 5 0
BBX 5 7 0 -1
BITMAP
06A700
5D6C60
9705B0
9704B0
7B0990
1BFD20
001000
ENDCHAR
STARTCHAR one
ENCODING 49
SWIDTH 317 0
DWIDTH 3 0
BBX 2 6 0 0
BITMAP
69
6F
2F
2F
2F
2F
ENDCHAR
STARTCHAR two
ENCODING 50
SWIDTH 570 0
DWIDTH 5 0
BBX 5 6 0 0
BITMAP
499400
388E20
036E20
6EB600
A82200
AFFF20
ENDCHAR
STARTCHAR three
ENCODING 51
SWIDTH 586 0
DWIDTH 5 0
BBX 5 6 0 0
BITMAP
699400
588E20
056E30
0ACF10
122E40
9FFA00
ENDCHAR
STARTCHAR four
ENCODING 52
SWIDTH 630 0
DWIDTH 5 0
BBX 5 6 0 0
BITMAP
290100
4C0F20
7A0F20
9A4F40
9DDFA0
000F20
ENDCHAR
STARTCHAR five
ENCODING 53
SWIDTH 585 0
DWIDTH 5 0
BBX 5 6 0 0
BITMAP
399920
6D8810
8C8400
599E30
122C50
9FFB10
ENDCHAR
STARTCHAR six
ENCODING 54
SWIDTH 615 0
DWIDTH 5 0
BBX 5 7 0 -1
BITMAP
048100
1E5000
7FEE20
AA0990
9B0A80
2DFD10
002000
ENDCHAR
STARTCHAR seven
ENCODING 55
SWIDTH 516 0
DWIDTH 4 0
BBX 4 6 0 0
BITMAP
7999
68BB
00C6
02F1
07B0
0C60
ENDCHAR
STARTCHAR eight
ENCODING 56
SWIDTH 618 0
DWIDTH 5 0
BBX 5 7 0 -1
BITMAP
07B700
5D5E40
3E7E20
6D8D50
A70890
3DCD30
002000
ENDCHAR
STARTCHAR nine
ENCODING 57
SWIDTH 616 0
DWIDTH 5 0
BBX 5 6 0 0
BITMAP
07B600
7C6E50
A70990
7D8E70
069F30
01C800
ENDCHAR
STARTCHAR colon
ENCODING 58
SWIDTH 276 0
DWIDTH 2 0
BBX 2 5 0 -1
BITMAP
12
7A
00
7A
12
ENDCHAR
STARTCHAR semicolon
ENCODING 59
SWIDTH 276 0
DWIDTH 2 0
BBX 2 5 0 -1
BITMAP
12
7A
00
7A
28
ENDCHAR
STARTCHAR less
ENCODING 60
SWIDTH 478 0
DWIDTH 4 0
BBX 4 6 0 0
BITMAP
0030
05E3
5E50
4E70
03E3
0010
ENDCHAR
STARTCHAR equal
ENCODING 61
SWIDTH 539 0
DWIDTH 4 0
BBX 4 4 0 1
BITMAP
1222
7EEB
4887
4886
ENDCHAR
STARTCHAR greater
ENCODING 62
SWIDTH 478 0
DWIDTH 4 0
BBX 4 6 0 0
BITMAP
0300
5E30
07E3
09D2
5D20
0100
ENDCHAR
STARTCHAR question
ENCODING 63
SWIDTH 603 0
DWIDTH 5 0
BBX 5 7 0 -1
BITMAP
699600
588D60
004C70
07E910
074000
0B6000
021000
ENDCHAR
STARTCHAR at
ENCODING 64
SWIDTH 629 0
DWIDTH 5 0
BBX 5 6 0 -1
BITMAP
014100
3C8D40
98C9A0
88CC90
1BA100
002000
ENDCHAR
STARTCHAR A
ENCODING 65
SWIDTH 673 0
DWIDTH 5 0
BBX 5 6 0 0
BITMAP
038600
3E9D90
8904D0
8A46E0
8EDEE0
8903E0
ENDCHAR
STARTCHAR B
ENCODING 66
SWIDTH 666 0
DWIDTH 5 0
BBX 5 6 0 0
BITMAP
499820
7C8AC0
7C58D0
7ECDB0
7A25E0
7FFE60
ENDCHAR
STARTCHAR C
ENCODING 67
SWIDTH 640 0
DWIDTH 5 0
BBX 5 7 0 -1
BITMAP
039940
3E98A0
A80000
B60000
7D2140
09FFA0
001100
ENDCHAR
STARTCHAR D
ENCODING 68
SWIDTH 653 0
DWIDTH 5 0
BBX 5 6 0 0
BITMAP
498400
7D9E60
7A05D0
7A03E0
7B3BA0
7FEA10
ENDCHAR
STARTCHAR E
ENCODING 69
SWIDTH 578 0
DWIDTH 5 0
BBX 5 6 0 0
BITMAP
499930
7C8830
7C5300
7EC600
7A2210
7FFF50
ENDCHAR
STARTCHAR F
ENCODING 70
SWIDTH 562 0
DWIDTH 5 0
BBX 5 6 0 0
BITMAP
499940
7C8830
7C5200
7EC400
7A0000
7A0000
ENDCHAR
STARTCHAR G
ENCODING 71
SWIDTH 665 0
DWIDTH 5 0
BBX 5 7 0 -1
BITMAP
039940
3E98A0
A80000
B601C0
7D22F0
09FFB0
001100
ENDCHAR
STARTCHAR H
ENCODING 72
SWIDTH 689 0
DWIDTH 6 0
BBX 5 6 0 0
BITMAP
460190
7A02F0
7C57F0
7ECCF0
7A02F0
7A02F0
ENDCHAR
STARTCHAR I
ENCODING 73
SWIDTH 270 0
DWIDTH 2 0
BBX 2 6 0 0
BITMAP
46
7A
7A
7A
7A
7A
ENDCHAR
STARTCHAR J
ENCODING 74
SWIDTH 416 0
DWIDTH 3 0
BBX 3 6 0 0
BITMAP
0280
04D0
04D0
04D0
29A0
DC20
ENDCHAR
STARTCHAR K
ENCODING 75
SWIDTH 625 0
DWIDTH 5 0
BBX 5 6 0 0
BITMAP
460570
7A2E30
7AC700
7FEA00
7D3E30
7A08B0
ENDCHAR
STARTCHAR L
ENCODING 76
SWIDTH 562 0
DWIDTH 5 0
BBX 5 6 0 0
BITMAP
460000
7A0000
7A0000
7A0000
7A2210
7FFF70
ENDCHAR
STARTCHAR M
ENCODING 77
SWIDTH 819 0
DWIDTH 7 0
BBX 7 6 0 0
BITMAP
07969300
6DAE8E00
894D0F10
894D0F10
894D0F10
894D0F10
ENDCHAR
STARTCHAR N
ENCODING 78
SWIDTH 689 0
DWIDTH 6 0
BBX 5 6 0 0
BITMAP
480190
7F52F0
7DD3F0
7AAAF0
7A2EF0
7A07F0
ENDCHAR
STARTCHAR O
ENCODING 79
SWIDTH 777 0
DWIDTH 6 0
BBX 6 7 0 -1
BITMAP
039940
3E98E6
A8005D
B6003F
7D21AA
09FFB1
001100
ENDCHAR
STARTCHAR P
ENCODING 80
SWIDTH 642 0
DWIDTH 5 0
BBX 5 6 0 0
BITMAP
499700
7C8CA0
7A03E0
7B49C0
7EDA20
7A0000
ENDCHAR
STARTCHAR Q
ENCODING 81
SWIDTH 777 0
DWIDTH 6 0
BBX 6 8 0 -2
BITMAP
039940
3E98E6
A8005D
B6003E
7D21AA
09FFC1
0017C0
000020
ENDCHAR
STARTCHAR R
ENCODING 82
SWIDTH 651 0
DWIDTH 5 0
BBX 5 6 0 0
BITMAP
499700
7C8CA0
7A03E0
7B49C0
7EDF20
7A0C50
ENDCHAR
STARTCHAR S
ENCODING 83
SWIDTH 610 0
DWIDTH 5 0
BBX 5 6 0 0
BITMAP
189940
AB8830
B95300
2ACE60
122990
8FFD30
ENDCHAR
STARTCHAR T
ENCODING 84
SWIDTH 578 0
DWIDTH 5 0
BBX 5 6 0 0
BITMAP
899950
7AE840
04D000
04D000
04D000
04D000
ENDCHAR
STARTCHAR U
ENCODING 85
SWIDTH 673 0
DWIDTH 5 0
BBX 5 6 0 0
BITMAP
550290
8903E0
8903E0
8903E0
6D39B0
09EC20
ENDCHAR
STARTCHAR V
ENCODING 86
SWIDTH 602 0
DWIDTH 5 0
BBX 5 6 0 0
BITMAP
830560
990C70
4E2F20
0E9C00
0AF700
05F200
ENDCHAR
STARTCHAR W
ENCODING 87
SWIDTH 819 0
DWIDTH 7 0
BBX 7 6 0 0
BITMAP
56380910
894D0F10
894D0F10
894D0F10
7A6D3F10
2DFCF900
ENDCHAR
STARTCHAR X
ENCODING 88
SWIDTH 608 0
DWIDTH 5 0
BBX 5 6 0 0
BITMAP
750660
5E4F30
0BF900
07F500
2E9D10
AA0C90
ENDCHAR
STARTCHAR Y
ENCODING 89
SWIDTH 620 0
DWIDTH 5 0
BBX 5 6 0 0
BITMAP
730470
C506B0
A808A0
3EDE30
02F200
01F100
ENDCHAR
STARTCHAR Z
ENCODING 90
SWIDTH 586 0
DWIDTH 5 0
BBX 5 6 0 0
BITMAP
799930
68CD00
01E600
07D000
1E7210
8FFF80
ENDCHAR
STARTCHAR bracketleft
ENCODING 91
SWIDTH 380 0
DWIDTH 3 0
BBX 3 8 0 -1
BITMAP
3650
8E80
8A00
8A00
8A00
8A00
8B40
6C90
ENDCHAR
STARTCHAR backslash
ENCODING 92
SWIDTH 490 0
DWIDTH 4 0
BBX 4 6 0 0
BITMAP
6500
5C00
0D40
07A0
01E1
00A7
ENDCHAR
STARTCHAR bracketright
ENCODING 93
SWIDTH 380 0
DWIDTH 3 0
BBX 3 8 0 -1
BITMAP
4630
8D80
0980
0980
0980
0980
3B80
8C70
ENDCHAR
STARTCHAR asciicircum
ENCODING 94
SWIDTH 293 0
DWIDTH 2 0
BBX 3 2 0 4
BITMAP
2400
AB20
ENDCHAR
STARTCHAR underscore
ENCODING 95
SWIDTH 598 0
DWIDTH 5 0
BBX 4 2 0 -2
BITMAP
1333
3DDD
ENDCHAR
STARTCHAR grave
ENCODING 96
SWIDTH 225 0
DWIDTH 2 0
BBX 2 2 0 4
BITMAP
41
88
ENDCHAR
STARTCHAR a
ENCODING 97
SWIDTH 607 0
DWIDTH 5 0
BBX 5 6 0 -1
BITMAP
024110
5ECD70
B50B70
B81D70
3DFA60
001000
ENDCHAR
STARTCHAR b
ENCODING 98
SWIDTH 597 0
DWIDTH 5 0
BBX 5 6 0 0
BITMAP
950000
A74100
AFCE20
A80980
8A1B70
1CFB10
ENDCHAR
STARTCHAR c
ENCODING 99
SWIDTH 521 0
DWIDTH 4 0
BBX 4 6 0 -1
BITMAP
0241
4ECC
B602
B814
3DFA
0010
ENDCHAR
STARTCHAR d
ENCODING 100
SWIDTH 606 0
DWIDTH 5 0
BBX 5 7 0 -1
BITMAP
000860
024A70
5ECF70
B60B70
A81D70
3DFA60
001000
ENDCHAR
STARTCHAR e
ENCODING 101
SWIDTH 524 0
DWIDTH 4 0
BBX 4 6 0 -1
BITMAP
0251
5EDC
B6D5
AE84
3DFA
0010
ENDCHAR
STARTCHAR f
ENCODING 102
SWIDTH 395 0
DWIDTH 3 0
BBX 4 7 0 0
BITMAP
0031
1CD5
5D30
BFD1
4C00
4C00
4C00
ENDCHAR
STARTCHAR g
ENCODING 103
SWIDTH 607 0
DWIDTH 5 0
BBX 5 7 0 -2
BITMAP
024110
5ECD70
B50B70
A81D70
3DFF60
029E20
028300
ENDCHAR
STARTCHAR h
ENCODING 104
SWIDTH 562 0
DWIDTH 5 0
BBX 5 6 0 0
BITMAP
860000
983000
9FDB00
980E20
970E20
970E20
ENDCHAR
STARTCHAR i
ENCODING 105
SWIDTH 235 0
DWIDTH 2 0
BBX 2 6 0 0
BITMAP
A8
54
97
97
97
97
ENDCHAR
STARTCHAR j
ENCODING 106
SWIDTH 237 0
DWIDTH 2 0
BBX 4 8 -2 -2
BITMAP
00A9
0044
0098
0098
0098
0097
18E3
2840
ENDCHAR
STARTCHAR k
ENCODING 107
SWIDTH 539 0
DWIDTH 4 0
BBX 5 6 0 0
BITMAP
860000
970210
977B00
9BF100
9FD700
983E10
ENDCHAR
STARTCHAR l
ENCODING 108
SWIDTH 235 0
DWIDTH 2 0
BBX 2 6 0 0
BITMAP
86
97
97
97
97
97
ENDCHAR
STARTCHAR m
ENCODING 109
SWIDTH 762 0
DWIDTH 6 0
BBX 6 5 0 0
BITMAP
122230
9EEEE6
97795B
97795B
97795B
ENDCHAR
STARTCHAR n
ENCODING 110
SWIDTH 562 0
DWIDTH 5 0
BBX 5 5 0 0
BITMAP
113000
9EDB00
980E20
970E20
970E20
ENDCHAR
STARTCHAR o
ENCODING 111
SWIDTH 579 0
DWIDTH 5 0
BBX 5 5 0 0
BITMAP
024100
5ECD10
B60B60
A81C50
2DFA00
ENDCHAR
STARTCHAR p
ENCODING 112
SWIDTH 608 0
DWIDTH 5 0
BBX 5 7 0 -2
BITMAP
114100
9ECE30
990790
9B1980
9EFC20
971000
540000
ENDCHAR
STARTCHAR q
ENCODING 113
SWIDTH 607 0
DWIDTH 5 0
BBX 5 7 0 -2
BITMAP
024010
5ECD70
B60B70
A81D70
3DFE70
001970
000540
ENDCHAR
STARTCHAR r
ENCODING 114
SWIDTH 414 0
DWIDTH 3 0
BBX 4 5 0 0
BITMAP
1021
8ED3
9800
9700
9700
ENDCHAR
STARTCHAR s
ENCODING 115
SWIDTH 523 0
DWIDTH 4 0
BBX 4 5 0 0
BITMAP
0232
7EDA
AB94
289E
BFFA
ENDCHAR
STARTCHAR t
ENCODING 116
SWIDTH 437 0
DWIDTH 4 0
BBX 4 6 0 0
BITMAP
5900
7B31
DFD4
5B00
4D10
0AF5
ENDCHAR
STARTCHAR u
ENCODING 117
SWIDTH 562 0
DWIDTH 5 0
BBX 5 5 0 0
BITMAP
210300
A60F10
A60F10
982F10
2DFC10
ENDCHAR
STARTCHAR v
ENCODING 118
SWIDTH 532 0
DWIDTH 4 0
BBX 5 5 0 0
BITMAP
310310
B73E10
5C8900
1EE400
09D000
ENDCHAR
STARTCHAR w
ENCODING 119
SWIDTH 756 0
DWIDTH 6 0
BBX 6 5 0 0
BITMAP
211112
97886A
97886A
97896A
3EEEE4
ENDCHAR
STARTCHAR x
ENCODING 120
SWIDTH 528 0
DWIDTH 4 0
BBX 5 5 0 0
BITMAP
310310
8B8B00
0CE100
1DE300
A96D10
ENDCHAR
STARTCHAR y
ENCODING 121
SWIDTH 562 0
DWIDTH 5 0
BBX 5 7 0 -2
BITMAP
210300
A60F10
A60F10
982F10
2DFF10
04BC00
057100
ENDCHAR
STARTCHAR z
ENCODING 122
SWIDTH 481 0
DWIDTH 4 0
BBX 4 5 0 0
BITMAP
2332
BEF4
06B0
1E31
8FFA
ENDCHAR
STARTCHAR braceleft
ENCODING 123
SWIDTH 466 0
DWIDTH 4 0
BBX 4 8 0 -1
BITMAP
0263
0BC5
0C50
5E30
9E20
0C50
0C82
06C5
ENDCHAR
STARTCHAR bar
ENCODING 124
SWIDTH 267 0
DWIDTH 2 0
BBX 2 8 0 -1
BITMAP
34
8A
8A
8A
8A
8A
8A
68
ENDCHAR
STARTCHAR braceright
ENCODING 125
SWIDTH 466 0
DWIDTH 4 0
BBX 4 8 0 -1
BITMAP
4500
8D70
0980
07C4
05E6
0980
3B80
8B30
ENDCHAR
STARTCHAR asciitilde
ENCODING 126
SWIDTH 451 0
DWIDTH 4 0
BBX 4 2 0 2
BITMAP
4972
78B1
ENDCHAR
STARTCHAR nonbreakingspace
ENCODING 160
SWIDTH 279 0
DWIDTH 2 0
BBX 1 1 0 0
BITMAP
00
ENDCHAR
STARTCHAR exclamdown
ENCODING 161
SWIDTH 274 0
DWIDTH 2 0
BBX 2 7 0 -2
BITMAP
57
46
58
69
7A
8B
11
ENDCHAR
STARTCHAR cent
ENCODING 162
SWIDTH 462 0
DWIDTH 4 0
BBX 4 6 0 0
BITMAP
0330
1AA1
8862
9531
2CC2
0560
ENDCHAR
STARTCHAR sterling
ENCODING 163
SWIDTH 681 0
DWIDTH 5 0
BBX 6 6 0 0
BITMAP
028200
0CA100
2F4000
8FC000
0F42A1
0FFF90
ENDCHAR
STARTCHAR currency
ENCODING 164
SWIDTH 454 0
DWIDTH 4 0
BBX 4 4 0 1
BITMAP
1010
8BD2
64A1
7992
ENDCHAR
STARTCHAR yen
ENCODING 165
SWIDTH 653 0
DWIDTH 5 0
BBX 5 6 0 0
BITMAP
650280
9804D0
8A06C0
2EDE50
6FFFA0
00E300
ENDCHAR
STARTCHAR brokenbar
ENCODING 166
SWIDTH 269 0
DWIDTH 2 0
BBX 2 8 0 -1
BITMAP
34
7A
7A
68
34
7A
7A
68
ENDCHAR
STARTCHAR section
ENCODING 167
SWIDTH 569 0
DWIDTH 5 0
BBX 5 6 0 0
BITMAP
189800
8C9600
7FED10
7C8E20
189F20
8FFC00
ENDCHAR
STARTCHAR dieresis
ENCODING 168
SWIDTH 300 0
DWIDTH 2 0
BBX 3 2 0 4
BITMAP
2110
A640
ENDCHAR
STARTCHAR copyright
ENCODING 169
SWIDTH 655 0
DWIDTH 5 0
BBX 5 5 0 0
BITMAP
19AA20
787490
880180
3AA960
026400
ENDCHAR
STARTCHAR ordfeminine
ENCODING 170
SWIDTH 451 0
DWIDTH 4 0
BBX 3 5 0 1
BITMAP
2980
73B0
3AB0
4880
1220
ENDCHAR
STARTCHAR guillemotleft
ENCODING 171
SWIDTH 704 0
DWIDTH 6 0
BBX 6 4 0 0
BITMAP
0692C1
5D3D60
5D4C80
0481A1
ENDCHAR
STARTCHAR logicalnot
ENCODING 172
SWIDTH 529 0
DWIDTH 4 0
BBX 4 3 0 1
BITMAP
3554
6BCB
0025
ENDCHAR
STARTCHAR uni00AD
ENCODING 173
SWIDTH 418 0
DWIDTH 3 0
BBX 3 2 0 2
BITMAP
3550
5B90
ENDCHAR
STARTCHAR registered
ENCODING 174
SWIDTH 439 0
DWIDTH 4 0
BBX 4 4 0 2
BITMAP
1650
6892
5991
0310
ENDCHAR
STARTCHAR macron
ENCODING 175
SWIDTH 247 0
DWIDTH 2 0
BBX 2 2 0 4
BITMAP
22
BB
ENDCHAR
STARTCHAR degree
ENCODING 176
SWIDTH 381 0
DWIDTH 3 0
BBX 3 3 0 3
BITMAP
1620
99A0
6D70
ENDCHAR
STARTCHAR plusminus
ENCODING 177
SWIDTH 516 0
DWIDTH 4 0
BBX 4 5 0 0
BITMAP
0230
3AB4
6DD7
1561
9FFA
ENDCHAR
STARTCHAR twosuperior
ENCODING 178
SWIDTH 355 0
DWIDTH 3 0
BBX 3 4 0 2
BITMAP
4920
4D50
9C40
1210
ENDCHAR
STARTCHAR threesuperior
ENCODING 179
SWIDTH 354 0
DWIDTH 3 0
BBX 3 4 0 2
BITMAP
5920
4D60
6D60
1200
ENDCHAR
STARTCHAR acute
ENCODING 180
SWIDTH 225 0
DWIDTH 2 0
BBX 2 2 0 4
BITMAP
23
B5
ENDCHAR
STARTCHAR mu
ENCODING 181
SWIDTH 571 0
DWIDTH 5 0
BBX 5 7 0 -2
BITMAP
120210
880D30
880D30
8A1E30
8FFB30
861000
640000
ENDCHAR
STARTCHAR paragraph
ENCODING 182
SWIDTH 808 0
DWIDTH 6 0
BBX 6 6 0 0
BITMAP
049998
5EAE9D
A74C3D
7C7C3D
09DC3D
004C3D
ENDCHAR
STARTCHAR periodcentered
ENCODING 183
SWIDTH 261 0
DWIDTH 2 0
BBX 2 2 0 2
BITMAP
33
78
ENDCHAR
STARTCHAR cedilla
ENCODING 184
SWIDTH 208 0
DWIDTH 2 0
BBX 2 3 0 -2
BITMAP
11
66
96
ENDCHAR
STARTCHAR onesuperior
ENCODING 185
SWIDTH 231 0
DWIDTH 2 0
BBX 2 4 0 2
BITMAP
63
66
66
11
ENDCHAR
STARTCHAR ordmasculine
ENCODING 186
SWIDTH 432 0
DWIDTH 3 0
BBX 3 5 0 1
BITMAP
2960
73A0
3A80
4880
1220
ENDCHAR
STARTCHAR guillemotright
ENCODING 187
SWIDTH 703 0
DWIDTH 6 0
BBX 6 4 0 0
BITMAP
691C20
1B86D1
1C88C1
571A10
ENDCHAR
STARTCHAR onequarter
ENCODING 188
SWIDTH 648 0
DWIDTH 5 0
BBX 5 6 0 0
BITMAP
450710
394900
39B100
069850
0C4BB0
6638C0
ENDCHAR
STARTCHAR onehalf
ENCODING 189
SWIDTH 637 0
DWIDTH 5 0
BBX 5 6 0 0
BITMAP
450710
394900
39B100
069B60
0C2B90
663D80
ENDCHAR
STARTCHAR threequarters
ENCODING 190
SWIDTH 708 0
DWIDTH 6 0
BBX 6 6 0 0
BITMAP
691350
5D5B20
7D9800
12B861
067BB3
1C06C4
ENDCHAR
STARTCHAR questiondown
ENCODING 191
SWIDTH 602 0
DWIDTH 5 0
BBX 5 7 0 -2
BITMAP
006600
005500
02B700
6EB100
A70000
5FFF80
012210
ENDCHAR
STARTCHAR Agrave
ENCODING 192
SWIDTH 673 0
DWIDTH 5 0
BBX 5 8 0 0
BITMAP
032000
04B000
038600
3E9D90
8904D0
8A46E0
8EDEE0
8903E0
ENDCHAR
STARTCHAR Aacute
ENCODING 193
SWIDTH 673 0
DWIDTH 5 0
BBX 5 8 0 0
BITMAP
000500
007800
038600
3E9D90
8904D0
8A46E0
8EDEE0
8903E0
ENDCHAR
STARTCHAR Acircumflex
ENCODING 194
SWIDTH 673 0
DWIDTH 5 0
BBX 5 8 0 0
BITMAP
005100
02A700
038600
3E9D90
8904D0
8A46E0
8EDEE0
8903E0
ENDCHAR
STARTCHAR Atilde
ENCODING 195
SWIDTH 673 0
DWIDTH 5 0
BBX 5 8 0 0
BITMAP
026600
078A00
038600
3E9D90
8904D0
8A46E0
8EDEE0
8903E0
ENDCHAR
STARTCHAR Adieresis
ENCODING 196
SWIDTH 673 0
DWIDTH 5 0
BBX 5 8 0 0
BITMAP
011200
055900
038600
3E9D90
8904D0
8A46E0
8EDEE0
8903E0
ENDCHAR
STARTCHAR Aring
ENCODING 197
SWIDTH 673 0
DWIDTH 5 0
BBX 5 7 0 0
BITMAP
00A400
03E800
3E9D80
8904E0
8A46E0
8EDEE0
8903E0
ENDCHAR
STARTCHAR AE
ENCODING 198
SWIDTH 988 0
DWIDTH 8 0
BBX 8 6 0 0
BITMAP
03899996
3E99F885
8903E540
8A46FC90
8EDEE221
8903FFFA
ENDCHAR
STARTCHAR Ccedilla
ENCODING 199
SWIDTH 640 0
DWIDTH 5 0
BBX 5 8 0 -2
BITMAP
039940
3E98A0
A80000
B60000
7D2140
09FFA0
009400
01B300
ENDCHAR
STARTCHAR Egrave
ENCODING 200
SWIDTH 578 0
DWIDTH 5 0
BBX 5 8 0 0
BITMAP
041000
06A000
499930
7C8830
7C5300
7EC600
7A2210
7FFF50
ENDCHAR
STARTCHAR Eacute
ENCODING 201
SWIDTH 578 0
DWIDTH 5 0
BBX 5 8 0 0
BITMAP
001400
00A600
499930
7C8830
7C5300
7EC600
7A2210
7FFF50
ENDCHAR
STARTCHAR Ecircumflex
ENCODING 202
SWIDTH 578 0
DWIDTH 5 0
BBX 5 8 0 0
BITMAP
005000
06A400
499930
7C8830
7C5300
7EC600
7A2210
7FFF50
ENDCHAR
STARTCHAR Edieresis
ENCODING 203
SWIDTH 578 0
DWIDTH 5 0
BBX 5 8 0 0
BITMAP
021100
085600
499930
7C8830
7C5300
7EC600
7A2210
7FFF50
ENDCHAR
STARTCHAR Igrave
ENCODING 204
SWIDTH 270 0
DWIDTH 2 0
BBX 3 8 -1 0
BITMAP
0500
1B40
0460
07A0
07A0
07A0
07A0
07A0
ENDCHAR
STARTCHAR Iacute
ENCODING 205
SWIDTH 270 0
DWIDTH 2 0
BBX 3 8 0 0
BITMAP
0410
2C20
4600
7A00
7A00
7A00
7A00
7A00
ENDCHAR
STARTCHAR Icircumflex
ENCODING 206
SWIDTH 270 0
DWIDTH 2 0
BBX 2 8 0 0
BITMAP
23
9A
46
7A
7A
7A
7A
7A
ENDCHAR
STARTCHAR Idieresis
ENCODING 207
SWIDTH 270 0
DWIDTH 2 0
BBX 4 8 -1 0
BITMAP
0210
1972
0460
07A0
07A0
07A0
07A0
07A0
ENDCHAR
STARTCHAR Eth
ENCODING 208
SWIDTH 672 0
DWIDTH 5 0
BBX 6 6 0 0
BITMAP
399500
5E8E80
8D23F1
CE51F2
5C2AC0
5FFB20
ENDCHAR
STARTCHAR Ntilde
ENCODING 209
SWIDTH 689 0
DWIDTH 6 0
BBX 5 8 0 0
BITMAP
026600
068A00
480190
7F52F0
7DD3F0
7AAAF0
7A2EF0
7A07F0
ENDCHAR
STARTCHAR Ograve
ENCODING 210
SWIDTH 777 0
DWIDTH 6 0
BBX 6 9 0 -1
BITMAP
005000
01B400
039940
3E98E6
A8005D
B6003F
7D21AA
09FFB1
001100
ENDCHAR
STARTCHAR Oacute
ENCODING 211
SWIDTH 777 0
DWIDTH 6 0
BBX 6 9 0 -1
BITMAP
000410
001C30
039940
3E98E6
A8005D
B6003F
7D21AA
09FFB1
001100
ENDCHAR
STARTCHAR Ocircumflex
ENCODING 212
SWIDTH 777 0
DWIDTH 6 0
BBX 6 9 0 -1
BITMAP
002300
009A10
039940
3E98E6
A8005D
B6003F
7D21AA
09FFB1
001100
ENDCHAR
STARTCHAR Otilde
ENCODING 213
SWIDTH 777 0
DWIDTH 6 0
BBX 6 9 0 -1
BITMAP
006430
02AB30
039940
3E98E6
A8005D
B6003F
7D21AA
09FFB1
001100
ENDCHAR
STARTCHAR Odieresis
ENCODING 214
SWIDTH 777 0
DWIDTH 6 0
BBX 6 9 0 -1
BITMAP
002100
019730
039940
3E98E6
A8005D
B6003F
7D21AA
09FFB1
001100
ENDCHAR
STARTCHAR multiply
ENCODING 215
SWIDTH 479 0
DWIDTH 4 0
BBX 4 4 0 1
BITMAP
0220
5DE3
3FD2
2561
ENDCHAR
STARTCHAR Oslash
ENCODING 216
SWIDTH 777 0
DWIDTH 6 0
BBX 6 7 0 -1
BITMAP
039984
3E9AF6
A81C7D
B6A63F
7EB1AA
2EFFB1
001100
ENDCHAR
STARTCHAR Ugrave
ENCODING 217
SWIDTH 673 0
DWIDTH 5 0
BBX 5 8 0 0
BITMAP
023000
04C000
550290
8903E0
8903E0
8903E0
6D39B0
09EC20
ENDCHAR
STARTCHAR Uacute
ENCODING 218
SWIDTH 673 0
DWIDTH 5 0
BBX 5 8 0 0
BITMAP
000500
007900
550290
8903E0
8903E0
8903E0
6D39B0
09EC20
ENDCHAR
STARTCHAR Ucircumflex
ENCODING 219
SWIDTH 673 0
DWIDTH 5 0
BBX 5 8 0 0
BITMAP
005100
02A700
550290
8903E0
8903E0
8903E0
6D39B0
09EC20
ENDCHAR
STARTCHAR Udieresis
ENCODING 220
SWIDTH 673 0
DWIDTH 5 0
BBX 5 8 0 0
BITMAP
011200
055900
550290
8903E0
8903E0
8903E0
6D39B0
09EC20
ENDCHAR
STARTCHAR Yacute
ENCODING 221
SWIDTH 620 0
DWIDTH 5 0
BBX 5 8 0 0
BITMAP
001400
00A600
730470
C506B0
A808A0
3EDE30
02F200
01F100
ENDCHAR
STARTCHAR Thorn
ENCODING 222
SWIDTH 637 0
DWIDTH 5 0
BBX 5 7 0 -1
BITMAP
681000
7FFD30
7A17D0
7A03E0
7DAE80
7C6400
220000
ENDCHAR
STARTCHAR germandbls
ENCODING 223
SWIDTH 813 0
DWIDTH 7 0
BBX 7 7 0 0
BITMAP
00341000
1CDDD000
5C02E200
BC7E9000
4C9B9700
4C188D60
4C6FFD20
ENDCHAR
STARTCHAR agrave
ENCODING 224
SWIDTH 607 0
DWIDTH 5 0
BBX 5 8 0 -1
BITMAP
050000
088000
024110
5ECD70
B50B70
B81D70
3DFA60
001000
ENDCHAR
STARTCHAR aacute
ENCODING 225
SWIDTH 607 0
DWIDTH 5 0
BBX 5 8 0 -1
BITMAP
003200
00C400
024110
5ECD70
B50B70
B81D70
3DFA60
001000
ENDCHAR
STARTCHAR acircumflex
ENCODING 226
SWIDTH 607 0
DWIDTH 5 0
BBX 5 8 0 -1
BITMAP
015000
07A200
024110
5ECD70
B50B70
B81D70
3DFA60
001000
ENDCHAR
STARTCHAR atilde
ENCODING 227
SWIDTH 607 0
DWIDTH 5 0
BBX 5 7 0 -1
BITMAP
054400
0CE610
5ECD70
B50B70
B81D70
3DFA60
001000
ENDCHAR
STARTCHAR adieresis
ENCODING 228
SWIDTH 607 0
DWIDTH 5 0
BBX 5 7 0 -1
BITMAP
021100
0B9610
5ECD70
B50B70
B81D70
3DFA60
001000
ENDCHAR
STARTCHAR aring
ENCODING 229
SWIDTH 607 0
DWIDTH 5 0
BBX 5 8 0 -1
BITMAP
038000
04A000
024110
5ECD70
B50B70
B81D70
3DFA60
001000
ENDCHAR
STARTCHAR ae
ENCODING 230
SWIDTH 976 0
DWIDTH 8 0
BBX 8 6 0 -1
BITMAP
02411430
5ECDEDF7
B50BE5D1
B81DED62
3DFACFE5
00100000
ENDCHAR
STARTCHAR ccedilla
ENCODING 231
SWIDTH 521 0
DWIDTH 4 0
BBX 4 7 0 -2
BITMAP
0241
4ECC
B602
B814
3DFA
02A0
0690
ENDCHAR
STARTCHAR egrave
ENCODING 232
SWIDTH 524 0
DWIDTH 4 0
BBX 4 8 0 -1
BITMAP
0500
0960
0251
5EDC
B6D5
AE84
3DFA
0010
ENDCHAR
STARTCHAR eacute
ENCODING 233
SWIDTH 524 0
DWIDTH 4 0
BBX 4 8 0 -1
BITMAP
0032
00C4
0251
5EDC
B6D5
AE84
3DFA
0010
ENDCHAR
STARTCHAR ecircumflex
ENCODING 234
SWIDTH 524 0
DWIDTH 4 0
BBX 4 8 0 -1
BITMAP
0240
09A1
0251
5EDC
B6D5
AE84
3DFA
0010
ENDCHAR
STARTCHAR edieresis
ENCODING 235
SWIDTH 524 0
DWIDTH 4 0
BBX 4 7 0 -1
BITMAP
0210
0BB4
5EDC
B6D5
AE84
3DFA
0010
ENDCHAR
STARTCHAR igrave
ENCODING 236
SWIDTH 235 0
DWIDTH 2 0
BBX 3 7 -1 0
BITMAP
1400
2C20
0210
0970
0970
0970
0970
ENDCHAR
STARTCHAR iacute
ENCODING 237
SWIDTH 235 0
DWIDTH 2 0
BBX 3 7 0 0
BITMAP
0500
4B10
2100
9700
9700
9700
9700
ENDCHAR
STARTCHAR icircumflex
ENCODING 238
SWIDTH 235 0
DWIDTH 2 0
BBX 2 6 0 0
BITMAP
32
BB
97
97
97
97
ENDCHAR
STARTCHAR idieresis
ENCODING 239
SWIDTH 235 0
DWIDTH 2 0
BBX 4 6 -1 0
BITMAP
0220
29A1
0970
0970
0970
0970
ENDCHAR
STARTCHAR eth
ENCODING 240
SWIDTH 581 0
DWIDTH 5 0
BBX 5 7 0 0
BITMAP
001000
0AFA30
06BD10
5ECF30
B60B60
A81C50
2DFA00
ENDCHAR
STARTCHAR ntilde
ENCODING 241
SWIDTH 562 0
DWIDTH 5 0
BBX 5 6 0 0
BITMAP
064400
1CD500
9EDB00
980E20
970E20
970E20
ENDCHAR
STARTCHAR ograve
ENCODING 242
SWIDTH 579 0
DWIDTH 5 0
BBX 5 7 0 0
BITMAP
050000
087000
024100
5ECD10
B60B60
A81C50
2DFA00
ENDCHAR
STARTCHAR oacute
ENCODING 243
SWIDTH 579 0
DWIDTH 5 0
BBX 5 7 0 0
BITMAP
003200
00C400
024100
5ECD10
B60B60
A81C50
2DFA00
ENDCHAR
STARTCHAR ocircumflex
ENCODING 244
SWIDTH 579 0
DWIDTH 5 0
BBX 5 7 0 0
BITMAP
014000
07A200
024100
5ECD10
B60B60
A81C50
2DFA00
ENDCHAR
STARTCHAR otilde
ENCODING 245
SWIDTH 579 0
DWIDTH 5 0
BBX 5 6 0 0
BITMAP
054400
0CE600
5ECD10
B60B60
A81C50
2DFA00
ENDCHAR
STARTCHAR odieresis
ENCODING 246
SWIDTH 579 0
DWIDTH 5 0
BBX 5 6 0 0
BITMAP
021100
0B9600
5ECD10
B60B60
A81C50
2DFA00
ENDCHAR
STARTCHAR divide
ENCODING 247
SWIDTH 494 0
DWIDTH 4 0
BBX 4 4 0 1
BITMAP
0650
4773
7BB7
0770
ENDCHAR
STARTCHAR oslash
ENCODING 248
SWIDTH 579 0
DWIDTH 5 0
BBX 5 5 0 0
BITMAP
025310
5EDF20
B6CD60
BE7C50
7FFA00
ENDCHAR
STARTCHAR ugrave
ENCODING 249
SWIDTH 562 0
DWIDTH 5 0
BBX 5 6 0 0
BITMAP
050000
2B6300
A60F10
A60F10
982F10
2DFC10
ENDCHAR
STARTCHAR uacute
ENCODING 250
SWIDTH 562 0
DWIDTH 5 0
BBX 5 6 0 0
BITMAP
003200
22C600
A60F10
A60F10
982F10
2DFC10
ENDCHAR
STARTCHAR ucircumflex
ENCODING 251
SWIDTH 562 0
DWIDTH 5 0
BBX 5 6 0 0
BITMAP
014000
29A400
A60F10
A60F10
982F10
2DFC10
ENDCHAR
STARTCHAR udieresis
ENCODING 252
SWIDTH 562 0
DWIDTH 5 0
BBX 5 6 0 0
BITMAP
021100
2B5700
A60F10
A60F10
982F10
2DFC10
ENDCHAR
STARTCHAR yacute
ENCODING 253
SWIDTH 562 0
DWIDTH 5 0
BBX 5 8 0 -2
BITMAP
003200
22C600
A60F10
A60F10
982F10
2DFF10
04BC00
057100
ENDCHAR
STARTCHAR thorn
ENCODING 254
SWIDTH 608 0
DWIDTH 5 0
BBX 5 8 0 -2
BITMAP
870000
994200
9FCE30
990790
9B1980
9EFC20
971000
540000
ENDCHAR
STARTCHAR ydieresis
ENCODING 255
SWIDTH 562 0
DWIDTH 5 0
BBX 5 8 0 -2
BITMAP
021100
2B5700
A60F10
A60F10
982F10
2DFF10
04BC00
057100
ENDCHAR
STARTCHAR Amacron
ENCODING 256
SWIDTH 673 0
DWIDTH 5 0
BBX 5 8 0 0
BITMAP
002100
03B700
038600
3E9D90
8904D0
8A46E0
8EDEE0
8903E0
ENDCHAR
STARTCHAR amacron
ENCODING 257
SWIDTH 607 0
DWIDTH 5 0
BBX 5 7 0 -1
BITMAP
012000
0AF310
5ECD70
B50B70
B81D70
3DFA60
001000
ENDCHAR
STARTCHAR Abreve
ENCODING 258
SWIDTH 673 0
DWIDTH 5 0
BBX 5 8 0 0
BITMAP
014300
019300
038600
3E9D90
8904D0
8A46E0
8EDEE0
8903E0
ENDCHAR
STARTCHAR abreve
ENCODING 259
SWIDTH 607 0
DWIDTH 5 0
BBX 5 7 0 -1
BITMAP
044000
07D110
5ECD70
B50B70
B81D70
3DFA60
001000
ENDCHAR
STARTCHAR Aogonek
ENCODING 260
SWIDTH 673 0
DWIDTH 5 0
BBX 5 8 0 -2
BITMAP
038600
3E9D90
8904D0
8A46E0
8EDEE0
8903E0
000590
000150
ENDCHAR
STARTCHAR aogonek
ENCODING 261
SWIDTH 607 0
DWIDTH 5 0
BBX 5 7 0 -2
BITMAP
024110
5ECD70
B50B70
B81D70
3DFA70
001770
000250
ENDCHAR
STARTCHAR Cacute
ENCODING 262
SWIDTH 640 0
DWIDTH 5 0
BBX 5 9 0 -1
BITMAP
000500
004B10
039940
3E98A0
A80000
B60000
7D2140
09FFA0
001100
ENDCHAR
STARTCHAR cacute
ENCODING 263
SWIDTH 521 0
DWIDTH 4 0
BBX 4 8 0 -1
BITMAP
0032
01C3
0251
4ECC
B602
B814
3DFA
0010
ENDCHAR
STARTCHAR Ccircumflex
ENCODING 264
SWIDTH 640 0
DWIDTH 5 0
BBX 5 9 0 -1
BITMAP
003200
00A900
039940
3E98A0
A80000
B60000
7D2140
09FFA0
001100
ENDCHAR
STARTCHAR ccircumflex
ENCODING 265
SWIDTH 521 0
DWIDTH 4 0
BBX 4 8 0 -1
BITMAP
0140
07A2
0241
4ECC
B602
B814
3DFA
0010
ENDCHAR
STARTCHAR Cdotaccent
ENCODING 266
SWIDTH 640 0
DWIDTH 5 0
BBX 5 9 0 -1
BITMAP
001200
004500
039940
3E98A0
A80000
B60000
7D2140
09FFA0
001100
ENDCHAR
STARTCHAR cdotaccent
ENCODING 267
SWIDTH 521 0
DWIDTH 4 0
BBX 4 7 0 -1
BITMAP
0020
03C1
4ECC
B602
B814
3DFA
0010
ENDCHAR
STARTCHAR Ccaron
ENCODING 268
SWIDTH 640 0
DWIDTH 5 0
BBX 5 9 0 -1
BITMAP
006500
006800
039940
3E98A0
A80000
B60000
7D2140
09FFA0
001100
ENDCHAR
STARTCHAR ccaron
ENCODING 269
SWIDTH 521 0
DWIDTH 4 0
BBX 4 8 0 -1
BITMAP
0552
03A1
0241
4ECC
B602
B814
3DFA
0010
ENDCHAR
STARTCHAR Dcaron
ENCODING 270
SWIDTH 653 0
DWIDTH 5 0
BBX 5 8 0 0
BITMAP
035400
01A200
498400
7D9E60
7A05D0
7A03E0
7B3BA0
7FEA10
ENDCHAR
STARTCHAR dcaron
ENCODING 271
SWIDTH 740 0
DWIDTH 6 0
BBX 6 7 0 -1
BITMAP
000867
024A7A
5ECF70
B60B70
A81D70
3DFA60
001000
ENDCHAR
STARTCHAR Dcroat
ENCODING 272
SWIDTH 672 0
DWIDTH 5 0
BBX 6 6 0 0
BITMAP
399500
5E8E80
8D23F1
CE51F2
5C2AC0
5FFB20
ENDCHAR
STARTCHAR dcroat
ENCODING 273
SWIDTH 606 0
DWIDTH 5 0
BBX 5 7 0 -1
BITMAP
000BA0
025CA0
5ECF70
B60B70
A81D70
3DFA60
001000
ENDCHAR
STARTCHAR Emacron
ENCODING 274
SWIDTH 578 0
DWIDTH 5 0
BBX 5 8 0 0
BITMAP
012100
05B600
499930
7C8830
7C5300
7EC600
7A2210
7FFF50
ENDCHAR
STARTCHAR emacron
ENCODING 275
SWIDTH 524 0
DWIDTH 4 0
BBX 4 7 0 -1
BITMAP
0120
0AF4
5EDC
B6D5
AE84
3DFA
0010
ENDCHAR
STARTCHAR Ebreve
ENCODING 276
SWIDTH 578 0
DWIDTH 5 0
BBX 5 8 0 0
BITMAP
034200
03A200
499930
7C8830
7C5300
7EC600
7A2210
7FFF50
ENDCHAR
STARTCHAR ebreve
ENCODING 277
SWIDTH 524 0
DWIDTH 4 0
BBX 4 7 0 -1
BITMAP
0440
07D1
5EDC
B6D5
AE84
3DFA
0010
ENDCHAR
STARTCHAR Edotaccent
ENCODING 278
SWIDTH 578 0
DWIDTH 5 0
BBX 5 8 0 0
BITMAP
003000
009000
499930
7C8830
7C5300
7EC600
7A2210
7FFF50
ENDCHAR
STARTCHAR edotaccent
ENCODING 279
SWIDTH 524 0
DWIDTH 4 0
BBX 4 7 0 -1
BITMAP
0020
04C1
5EDC
B6D5
AE84
3DFA
0010
ENDCHAR
STARTCHAR Eogonek
ENCODING 280
SWIDTH 578 0
DWIDTH 5 0
BBX 5 8 0 -2
BITMAP
499930
7C8830
7C5300
7EC600
7A2210
7FFF50
003A10
001510
ENDCHAR
STARTCHAR eogonek
ENCODING 281
SWIDTH 524 0
DWIDTH 4 0
BBX 4 7 0 -2
BITMAP
0251
5EDC
B6D5
AE84
3DFA
00B4
0043
ENDCHAR
STARTCHAR Ecaron
ENCODING 282
SWIDTH 578 0
DWIDTH 5 0
BBX 5 8 0 0
BITMAP
045300
02A100
499930
7C8830
7C5300
7EC600
7A2210
7FFF50
ENDCHAR
STARTCHAR ecaron
ENCODING 283
SWIDTH 524 0
DWIDTH 4 0
BBX 4 8 0 -1
BITMAP
0551
0390
0251
5EDC
B6D5
AE84
3DFA
0010
ENDCHAR
STARTCHAR Gcircumflex
ENCODING 284
SWIDTH 665 0
DWIDTH 5 0
BBX 5 9 0 -1
BITMAP
003200
00AA00
039940
3E98A0
A80000
B601C0
7D22F0
09FFB0
001100
ENDCHAR
STARTCHAR gcircumflex
ENCODING 285
SWIDTH 607 0
DWIDTH 5 0
BBX 5 9 0 -2
BITMAP
014000
07A200
024110
5ECD70
B50B70
A81D70
3DFF60
029E20
028300
ENDCHAR
STARTCHAR Gbreve
ENCODING 286
SWIDTH 665 0
DWIDTH 5 0
BBX 5 9 0 -1
BITMAP
004400
007700
039940
3E98A0
A80000
B601C0
7D22F0
09FFB0
001100
ENDCHAR
STARTCHAR gbreve
ENCODING 287
SWIDTH 607 0
DWIDTH 5 0
BBX 5 8 0 -2
BITMAP
044100
06E110
5ECD70
B50B70
A81D70
3DFF60
029E20
028300
ENDCHAR
STARTCHAR Gdotaccent
ENCODING 288
SWIDTH 665 0
DWIDTH 5 0
BBX 5 9 0 -1
BITMAP
001100
005400
039940
3E98A0
A80000
B601C0
7D22F0
09FFB0
001100
ENDCHAR
STARTCHAR gdotaccent
ENCODING 289
SWIDTH 607 0
DWIDTH 5 0
BBX 5 8 0 -2
BITMAP
002000
04B110
5ECD70
B50B70
A81D70
3DFF60
029E20
028300
ENDCHAR
STARTCHAR Gcommaaccent
ENCODING 290
SWIDTH 665 0
DWIDTH 5 0
BBX 5 8 0 -2
BITMAP
039940
3E98A0
A80000
B601C0
7D22F0
09FFB0
005500
004600
ENDCHAR
STARTCHAR gcommaaccent
ENCODING 291
SWIDTH 607 0
DWIDTH 5 0
BBX 5 8 0 -2
BITMAP
026000
04C110
5ECD70
B50B70
A81D70
3DFF60
029E20
028300
ENDCHAR
STARTCHAR Hcircumflex
ENCODING 292
SWIDTH 689 0
DWIDTH 6 0
BBX 5 8 0 0
BITMAP
004100
01A800
460190
7A02F0
7C57F0
7ECCF0
7A02F0
7A02F0
ENDCHAR
STARTCHAR hcircumflex
ENCODING 293
SWIDTH 562 0
DWIDTH 5 0
BBX 5 6 0 0
BITMAP
864100
9AD800
9FDB00
980E20
970E20
970E20
ENDCHAR
STARTCHAR Hbar
ENCODING 294
SWIDTH 689 0
DWIDTH 6 0
BBX 6 6 0 0
BITMAP
460190
DFEEF6
8C89F1
7ECCF0
7A02F0
7A02F0
ENDCHAR
STARTCHAR hbar
ENCODING 295
SWIDTH 562 0
DWIDTH 5 0
BBX 5 6 0 0
BITMAP
B90000
BA3000
9FDB00
980E20
970E20
970E20
ENDCHAR
STARTCHAR Itilde
ENCODING 296
SWIDTH 270 0
DWIDTH 2 0
BBX 4 8 -1 0
BITMAP
0743
2AB3
0460
07A0
07A0
07A0
07A0
07A0
ENDCHAR
STARTCHAR itilde
ENCODING 297
SWIDTH 235 0
DWIDTH 2 0
BBX 4 6 -1 0
BITMAP
1752
4BC1
0970
0970
0970
0970
ENDCHAR
STARTCHAR Imacron
ENCODING 298
SWIDTH 270 0
DWIDTH 2 0
BBX 3 8 0 0
BITMAP
1200
AB10
4600
7A00
7A00
7A00
7A00
7A00
ENDCHAR
STARTCHAR imacron
ENCODING 299
SWIDTH 235 0
DWIDTH 2 0
BBX 2 6 0 0
BITMAP
22
CC
97
97
97
97
ENDCHAR
STARTCHAR Ibreve
ENCODING 300
SWIDTH 270 0
DWIDTH 2 0
BBX 2 8 0 0
BITMAP
44
68
46
7A
7A
7A
7A
7A
ENDCHAR
STARTCHAR ibreve
ENCODING 301
SWIDTH 235 0
DWIDTH 2 0
BBX 2 6 0 0
BITMAP
44
98
97
97
97
97
ENDCHAR
STARTCHAR Iogonek
ENCODING 302
SWIDTH 270 0
DWIDTH 2 0
BBX 2 8 0 -2
BITMAP
46
7A
7A
7A
7A
7A
95
34
ENDCHAR
STARTCHAR iogonek
ENCODING 303
SWIDTH 235 0
DWIDTH 2 0
BBX 2 8 0 -2
BITMAP
A8
54
97
97
97
97
A4
33
ENDCHAR
STARTCHAR Idotaccent
ENCODING 304
SWIDTH 270 0
DWIDTH 2 0
BBX 2 8 0 0
BITMAP
12
45
46
7A
7A
7A
7A
7A
ENDCHAR
STARTCHAR dotlessi
ENCODING 305
SWIDTH 235 0
DWIDTH 2 0
BBX 2 5 0 0
BITMAP
21
97
97
97
97
ENDCHAR
STARTCHAR IJ
ENCODING 306
SWIDTH 687 0
DWIDTH 6 0
BBX 5 6 0 0
BITMAP
460190
7A01F0
7A01F0
7A01F0
7A27D0
7ABD30
ENDCHAR
STARTCHAR ij
ENCODING 307
SWIDTH 474 0
DWIDTH 4 0
BBX 4 8 0 -2
BITMAP
A8B7
5453
97A6
97A6
97A6
97B6
28E2
3830
ENDCHAR
STARTCHAR Jcircumflex
ENCODING 308
SWIDTH 416 0
DWIDTH 3 0
BBX 4 8 0 0
BITMAP
0140
07A2
0280
04D0
04D0
04D0
29A0
DC20
ENDCHAR
STARTCHAR jcircumflex
ENCODING 309
SWIDTH 237 0
DWIDTH 2 0
BBX 4 8 -2 -2
BITMAP
0032
00BB
0098
0098
0098
0097
18E3
2840
ENDCHAR
STARTCHAR Kcommaaccent
ENCODING 310
SWIDTH 625 0
DWIDTH 5 0
BBX 5 8 0 -2
BITMAP
460570
7A2E30
7AC700
7FEA00
7D3E30
7A08B0
008000
00A000
ENDCHAR
STARTCHAR kcommaaccent
ENCODING 311
SWIDTH 539 0
DWIDTH 4 0
BBX 5 8 0 -2
BITMAP
860000
970210
977B00
9BF100
9FD700
983E10
035000
028000
ENDCHAR
STARTCHAR kgreenlandic
ENCODING 312
SWIDTH 539 0
DWIDTH 4 0
BBX 5 5 0 0
BITMAP
210210
977B00
9BF100
9FD700
983E10
ENDCHAR
STARTCHAR Lacute
ENCODING 313
SWIDTH 562 0
DWIDTH 5 0
BBX 5 8 0 0
BITMAP
004100
02C200
460000
7A0000
7A0000
7A0000
7A2210
7FFF70
ENDCHAR
STARTCHAR lacute
ENCODING 314
SWIDTH 235 0
DWIDTH 2 0
BBX 3 8 0 0
BITMAP
0310
1C30
8600
9700
9700
9700
9700
9700
ENDCHAR
STARTCHAR Lcommaaccent
ENCODING 315
SWIDTH 562 0
DWIDTH 5 0
BBX 5 8 0 -2
BITMAP
460000
7A0000
7A0000
7A0000
7A2210
7FFF70
026000
019000
ENDCHAR
STARTCHAR lcommaaccent
ENCODING 316
SWIDTH 235 0
DWIDTH 2 0
BBX 2 8 0 -2
BITMAP
86
97
97
97
97
97
43
55
ENDCHAR
STARTCHAR Lcaron
ENCODING 317
SWIDTH 562 0
DWIDTH 5 0
BBX 5 6 0 0
BITMAP
467100
7A9100
7A0000
7A0000
7A2210
7FFF70
ENDCHAR
STARTCHAR lcaron
ENCODING 318
SWIDTH 369 0
DWIDTH 3 0
BBX 3 6 0 0
BITMAP
8770
98A0
9700
9700
9700
9700
ENDCHAR
STARTCHAR Ldot
ENCODING 319
SWIDTH 745 0
DWIDTH 6 0
BBX 6 6 0 0
BITMAP
460000
7A0000
7A0043
7A0086
7A2210
7FFF70
ENDCHAR
STARTCHAR ldotaccent
ENCODING 320
SWIDTH 463 0
DWIDTH 4 0
BBX 4 6 0 0
BITMAP
8600
9700
9751
97B3
9700
9700
ENDCHAR
STARTCHAR Lslash
ENCODING 321
SWIDTH 585 0
DWIDTH 5 0
BBX 5 6 0 0
BITMAP
380000
4C0000
4E6000
DD1000
6D2210
4FFF90
ENDCHAR
STARTCHAR lslash
ENCODING 322
SWIDTH 319 0
DWIDTH 3 0
BBX 3 6 0 0
BITMAP
4A00
4C00
4E60
DD10
6C00
4C00
ENDCHAR
STARTCHAR Nacute
ENCODING 323
SWIDTH 689 0
DWIDTH 6 0
BBX 5 8 0 0
BITMAP
000500
007900
480190
7F52F0
7DD3F0
7AAAF0
7A2EF0
7A07F0
ENDCHAR
STARTCHAR nacute
ENCODING 324
SWIDTH 562 0
DWIDTH 5 0
BBX 5 7 0 0
BITMAP
002300
00B500
113000
9EDB00
980E20
970E20
970E20
ENDCHAR
STARTCHAR Ncommaaccent
ENCODING 325
SWIDTH 689 0
DWIDTH 6 0
BBX 5 8 0 -2
BITMAP
480190
7F52F0
7DD3F0
7AAAF0
7A2EF0
7A07F0
006200
007200
ENDCHAR
STARTCHAR ncommaaccent
ENCODING 326
SWIDTH 562 0
DWIDTH 5 0
BBX 5 7 0 -2
BITMAP
113000
9EDB00
980E20
970E20
970E20
026000
019000
ENDCHAR
STARTCHAR Ncaron
ENCODING 327
SWIDTH 689 0
DWIDTH 6 0
BBX 5 8 0 0
BITMAP
015500
009400
480190
7F52F0
7DD3F0
7AAAF0
7A2EF0
7A07F0
ENDCHAR
STARTCHAR ncaron
ENCODING 328
SWIDTH 562 0
DWIDTH 5 0
BBX 5 6 0 0
BITMAP
055100
15C000
9EDB00
980E20
970E20
970E20
ENDCHAR
STARTCHAR napostrophe
ENCODING 329
SWIDTH 694 0
DWIDTH 6 0
BBX 6 6 0 0
BITMAP
700000
A11300
08EDB0
0890E2
0880D3
0880D3
ENDCHAR
STARTCHAR Eng
ENCODING 330
SWIDTH 689 0
DWIDTH 6 0
BBX 5 8 0 -2
BITMAP
480190
7F52F0
7DD3F0
7AAAF0
7A2EF0
7A08E0
007CA0
007700
ENDCHAR
STARTCHAR eng
ENCODING 331
SWIDTH 562 0
DWIDTH 5 0
BBX 5 7 0 -2
BITMAP
113000
9EDB00
980E20
970E20
970E20
04AC00
057100
ENDCHAR
STARTCHAR Omacron
ENCODING 332
SWIDTH 777 0
DWIDTH 6 0
BBX 6 9 0 -1
BITMAP
001200
009B10
039940
3E98E6
A8005D
B6003F
7D21AA
09FFB1
001100
ENDCHAR
STARTCHAR omacron
ENCODING 333
SWIDTH 579 0
DWIDTH 5 0
BBX 5 6 0 0
BITMAP
012000
09F400
5ECD10
B60B60
A81C50
2DFA00
ENDCHAR
STARTCHAR Obreve
ENCODING 334
SWIDTH 777 0
DWIDTH 6 0
BBX 6 9 0 -1
BITMAP
004400
005800
039940
3E98E6
A8005D
B6003F
7D21AA
09FFB1
001100
ENDCHAR
STARTCHAR obreve
ENCODING 335
SWIDTH 579 0
DWIDTH 5 0
BBX 5 6 0 0
BITMAP
034100
05E200
5ECD10
B60B60
A81C50
2DFA00
ENDCHAR
STARTCHAR Ohungarumlaut
ENCODING 336
SWIDTH 777 0
DWIDTH 6 0
BBX 6 9 0 -1
BITMAP
007780
008750
039940
3E98E6
A8005D
B6003F
7D21AA
09FFB1
001100
ENDCHAR
STARTCHAR ohungarumlaut
ENCODING 337
SWIDTH 579 0
DWIDTH 5 0
BBX 5 6 0 0
BITMAP
049810
09A900
5ECD10
B60B60
A81C50
2DFA00
ENDCHAR
STARTCHAR OE
ENCODING 338
SWIDTH 1125 0
DWIDTH 9 0
BBX 9 7 0 -1
BITMAP
0399599970
3E98EF8860
A8005F6500
B6003FCA00
7D21AF2210
09FFCFFFB0
0011000000
ENDCHAR
STARTCHAR oe
ENCODING 339
SWIDTH 924 0
DWIDTH 7 0
BBX 8 6 0 -1
BITMAP
02411420
5ECDEDE1
B60B9B80
A81CEA50
2DFABFC1
00000100
ENDCHAR
STARTCHAR Racute
ENCODING 340
SWIDTH 651 0
DWIDTH 5 0
BBX 5 8 0 0
BITMAP
001400
009700
499700
7C8CA0
7A03E0
7B49C0
7EDF20
7A0C50
ENDCHAR
STARTCHAR racute
ENCODING 341
SWIDTH 414 0
DWIDTH 3 0
BBX 4 7 0 0
BITMAP
0050
0790
1121
8ED3
9800
9700
9700
ENDCHAR
STARTCHAR Rcommaaccent
ENCODING 342
SWIDTH 651 0
DWIDTH 5 0
BBX 5 8 0 -2
BITMAP
499700
7C8CA0
7A03E0
7B49C0
7EDF20
7A0C50
007100
009100
ENDCHAR
STARTCHAR rcommaaccent
ENCODING 343
SWIDTH 414 0
DWIDTH 3 0
BBX 4 7 0 -2
BITMAP
1021
8ED3
9800
9700
9700
5300
5500
ENDCHAR
STARTCHAR Rcaron
ENCODING 344
SWIDTH 651 0
DWIDTH 5 0
BBX 5 8 0 0
BITMAP
035400
01A200
499700
7C8CA0
7A03E0
7B49C0
7EDF20
7A0C50
ENDCHAR
STARTCHAR rcaron
ENCODING 345
SWIDTH 414 0
DWIDTH 3 0
BBX 4 6 0 0
BITMAP
2540
2A51
8ED3
9800
9700
9700
ENDCHAR
STARTCHAR Sacute
ENCODING 346
SWIDTH 610 0
DWIDTH 5 0
BBX 5 8 0 0
BITMAP
001400
009700
189940
AB8830
B95300
2ACE60
122990
8FFD30
ENDCHAR
STARTCHAR sacute
ENCODING 347
SWIDTH 523 0
DWIDTH 4 0
BBX 4 7 0 0
BITMAP
0032
01C3
0232
7EDA
AB94
289E
BFFA
ENDCHAR
STARTCHAR Scircumflex
ENCODING 348
SWIDTH 610 0
DWIDTH 5 0
BBX 5 8 0 0
BITMAP
005000
06A400
189940
AB8830
B95300
2ACE60
122990
8FFD30
ENDCHAR
STARTCHAR scircumflex
ENCODING 349
SWIDTH 523 0
DWIDTH 4 0
BBX 4 6 0 0
BITMAP
0230
0BD2
7EDA
AB94
289E
BFFA
ENDCHAR
STARTCHAR Scedilla
ENCODING 350
SWIDTH 610 0
DWIDTH 5 0
BBX 5 8 0 -2
BITMAP
189940
AB8830
B95300
2ACE60
122990
8FFD30
00A200
03B200
ENDCHAR
STARTCHAR scedilla
ENCODING 351
SWIDTH 523 0
DWIDTH 4 0
BBX 4 7 0 -2
BITMAP
0232
7EDA
AB94
289E
BFFA
0290
0690
ENDCHAR
STARTCHAR Scaron
ENCODING 352
SWIDTH 610 0
DWIDTH 5 0
BBX 5 8 0 0
BITMAP
045300
02A100
189940
AB8830
B95300
2ACE60
122990
8FFD30
ENDCHAR
STARTCHAR scaron
ENCODING 353
SWIDTH 523 0
DWIDTH 4 0
BBX 4 6 0 0
BITMAP
0551
06B2
7EDA
AB94
289E
BFFA
ENDCHAR
STARTCHAR Tcommaaccent
ENCODING 354
SWIDTH 578 0
DWIDTH 5 0
BBX 5 8 0 -2
BITMAP
899950
7AE840
04D000
04D000
04D000
04D000
016000
019000
ENDCHAR
STARTCHAR tcommaaccent
ENCODING 355
SWIDTH 437 0
DWIDTH 4 0
BBX 4 8 0 -2
BITMAP
5900
7B31
DFD4
5B00
4D10
0AF5
0620
0720
ENDCHAR
STARTCHAR Tcaron
ENCODING 356
SWIDTH 578 0
DWIDTH 5 0
BBX 5 8 0 0
BITMAP
055200
03A100
899950
7AE840
04D000
04D000
04D000
04D000
ENDCHAR
STARTCHAR tcaron
ENCODING 357
SWIDTH 570 0
DWIDTH 5 0
BBX 5 6 0 0
BITMAP
590440
7B3460
DFD400
5B0000
4D1000
0AF500
ENDCHAR
STARTCHAR Tbar
ENCODING 358
SWIDTH 578 0
DWIDTH 5 0
BBX 5 6 0 0
BITMAP
899950
7AE840
04D000
0CF700
05D100
04D000
ENDCHAR
STARTCHAR tbar
ENCODING 359
SWIDTH 437 0
DWIDTH 4 0
BBX 4 6 0 0
BITMAP
5900
7B31
DFD4
BE50
7E40
0AF5
ENDCHAR
STARTCHAR Utilde
ENCODING 360
SWIDTH 673 0
DWIDTH 5 0
BBX 5 8 0 0
BITMAP
026600
078A00
550290
8903E0
8903E0
8903E0
6D39B0
09EC20
ENDCHAR
STARTCHAR utilde
ENCODING 361
SWIDTH 562 0
DWIDTH 5 0
BBX 5 6 0 0
BITMAP
064400
2CA700
A60F10
A60F10
982F10
2DFC10
ENDCHAR
STARTCHAR Umacron
ENCODING 362
SWIDTH 673 0
DWIDTH 5 0
BBX 5 8 0 0
BITMAP
002100
03B700
550290
8903E0
8903E0
8903E0
6D39B0
09EC20
ENDCHAR
STARTCHAR umacron
ENCODING 363
SWIDTH 562 0
DWIDTH 5 0
BBX 5 6 0 0
BITMAP
012000
29B500
A60F10
A60F10
982F10
2DFC10
ENDCHAR
STARTCHAR Ubreve
ENCODING 364
SWIDTH 673 0
DWIDTH 5 0
BBX 5 8 0 0
BITMAP
014400
009400
550290
8903E0
8903E0
8903E0
6D39B0
09EC20
ENDCHAR
STARTCHAR ubreve
ENCODING 365
SWIDTH 562 0
DWIDTH 5 0
BBX 5 6 0 0
BITMAP
044000
269300
A60F10
A60F10
982F10
2DFC10
ENDCHAR
STARTCHAR Uring
ENCODING 366
SWIDTH 673 0
DWIDTH 5 0
BBX 5 8 0 0
BITMAP
008300
00A400
550290
8903E0
8903E0
8903E0
6D39B0
09EC20
ENDCHAR
STARTCHAR uring
ENCODING 367
SWIDTH 562 0
DWIDTH 5 0
BBX 5 6 0 0
BITMAP
037000
269300
A60F10
A60F10
982F10
2DFC10
ENDCHAR
STARTCHAR Uhungarumlaut
ENCODING 368
SWIDTH 673 0
DWIDTH 5 0
BBX 5 8 0 0
BITMAP
01B640
036A20
550290
8903E0
8903E0
8903E0
6D39B0
09EC20
ENDCHAR
STARTCHAR uhungarumlaut
ENCODING 369
SWIDTH 562 0
DWIDTH 5 0
BBX 5 6 0 0
BITMAP
058800
286A00
A60F10
A60F10
982F10
2DFC10
ENDCHAR
STARTCHAR Uogonek
ENCODING 370
SWIDTH 673 0
DWIDTH 5 0
BBX 5 8 0 -2
BITMAP
550290
8903E0
8903E0
8903E0
6D39C0
09FC30
01B200
005100
ENDCHAR
STARTCHAR uogonek
ENCODING 371
SWIDTH 562 0
DWIDTH 5 0
BBX 5 7 0 -2
BITMAP
210300
A60F10
A60F10
982F10
2DFC10
000B30
000430
ENDCHAR
STARTCHAR Wcircumflex
ENCODING 372
SWIDTH 819 0
DWIDTH 7 0
BBX 7 8 0 0
BITMAP
00140000
007A2000
56380910
894D0F10
894D0F10
894D0F10
7A6D3F10
2DFCF900
ENDCHAR
STARTCHAR wcircumflex
ENCODING 373
SWIDTH 756 0
DWIDTH 6 0
BBX 6 6 0 0
BITMAP
002300
21BB12
97886A
97886A
97896A
3EEEE4
ENDCHAR
STARTCHAR Ycircumflex
ENCODING 374
SWIDTH 620 0
DWIDTH 5 0
BBX 5 8 0 0
BITMAP
005000
05A500
730470
C506B0
A808A0
3EDE30
02F200
01F100
ENDCHAR
STARTCHAR ycircumflex
ENCODING 375
SWIDTH 562 0
DWIDTH 5 0
BBX 5 8 0 -2
BITMAP
014000
29A400
A60F10
A60F10
982F10
2DFF10
04BC00
057100
ENDCHAR
STARTCHAR Ydieresis
ENCODING 376
SWIDTH 620 0
DWIDTH 5 0
BBX 5 8 0 0
BITMAP
020100
075700
730470
C506B0
A808A0
3EDE30
02F200
01F100
ENDCHAR
STARTCHAR Zacute
ENCODING 377
SWIDTH 586 0
DWIDTH 5 0
BBX 5 8 0 0
BITMAP
002300
00A500
799930
68CD00
01E600
07D000
1E7210
8FFF80
ENDCHAR
STARTCHAR zacute
ENCODING 378
SWIDTH 481 0
DWIDTH 4 0
BBX 4 7 0 0
BITMAP
0040
03C2
2332
BEF4
06B0
1E31
8FFA
ENDCHAR
STARTCHAR Zdotaccent
ENCODING 379
SWIDTH 586 0
DWIDTH 5 0
BBX 5 8 0 0
BITMAP
003000
018000
799930
68CD00
01E600
07D000
1E7210
8FFF80
ENDCHAR
STARTCHAR zdotaccent
ENCODING 380
SWIDTH 481 0
DWIDTH 4 0
BBX 4 6 0 0
BITMAP
0210
2862
BEF4
06B0
1E31
8FFA
ENDCHAR
STARTCHAR Zcaron
ENCODING 381
SWIDTH 586 0
DWIDTH 5 0
BBX 5 8 0 0
BITMAP
055200
03A100
799930
68CD00
01E600
07D000
1E7210
8FFF80
ENDCHAR
STARTCHAR zcaron
ENCODING 382
SWIDTH 481 0
DWIDTH 4 0
BBX 4 6 0 0
BITMAP
0650
2A82
BEF4
06B0
1E31
8FFA
ENDCHAR
STARTCHAR AEacute
ENCODING 508
SWIDTH 988 0
DWIDTH 8 0
BBX 8 8 0 0
BITMAP
00002300
0000B500
03899996
3E99F885
8903E540
8A46FC90
8EDEE221
8903FFFA
ENDCHAR
STARTCHAR aeacute
ENCODING 509
SWIDTH 976 0
DWIDTH 8 0
BBX 8 8 0 -1
BITMAP
00003200
0001C300
02411430
5ECDEDF7
B50BE5D1
B81DED62
3DFACFE5
00100000
ENDCHAR
STARTCHAR Oslashacute
ENCODING 510
SWIDTH 777 0
DWIDTH 6 0
BBX 6 9 0 -1
BITMAP
000410
001C30
039984
3E9AF6
A81C7D
B6A63F
7EB1AA
2EFFB1
001100
ENDCHAR
STARTCHAR oslashacute
ENCODING 511
SWIDTH 579 0
DWIDTH 5 0
BBX 5 7 0 0
BITMAP
002300
00B500
025310
5EDF20
B6CD60
BE7C50
7FFA00
ENDCHAR
STARTCHAR dotlessj
ENCODING 567
SWIDTH 237 0
DWIDTH 2 0
BBX 4 7 -2 -2
BITMAP
0021
0098
0098
0098
0097
18E3
2840
ENDCHAR
STARTCHAR circumflex
ENCODING 710
SWIDTH 267 0
DWIDTH 2 0
BBX 2 2 0 4
BITMAP
23
9A
ENDCHAR
STARTCHAR caron
ENCODING 711
SWIDTH 267 0
DWIDTH 2 0
BBX 2 2 0 4
BITMAP
65
68
ENDCHAR
STARTCHAR breve
ENCODING 728
SWIDTH 220 0
DWIDTH 2 0
BBX 2 2 0 4
BITMAP
44
86
ENDCHAR
STARTCHAR dotaccent
ENCODING 729
SWIDTH 125 0
DWIDTH 1 0
BBX 1 2 0 4
BITMAP
30
90
ENDCHAR
STARTCHAR ring
ENCODING 730
SWIDTH 192 0
DWIDTH 2 0
BBX 2 2 0 4
BITMAP
73
95
ENDCHAR
STARTCHAR ogonek
ENCODING 731
SWIDTH 212 0
DWIDTH 2 0
BBX 2 3 0 -2
BITMAP
20
C3
42
ENDCHAR
STARTCHAR tilde
ENCODING 732
SWIDTH 321 0
DWIDTH 3 0
BBX 3 2 0 4
BITMAP
5440
AA50
ENDCHAR
STARTCHAR hungarumlaut
ENCODING 733
SWIDTH 384 0
DWIDTH 3 0
BBX 3 2 0 4
BITMAP
6780
8760
ENDCHAR
STARTCHAR uni0312
ENCODING 786
SWIDTH 192 0
DWIDTH 2 0
BBX 2 2 0 4
BITMAP
71
72
ENDCHAR
STARTCHAR uni0315
ENCODING 789
SWIDTH 132 0
DWIDTH 1 0
BBX 1 2 0 4
BITMAP
70
A0
ENDCHAR
STARTCHAR uni0326
ENCODING 806
SWIDTH 193 0
DWIDTH 2 0
BBX 2 2 0 -2
BITMAP
62
73
ENDCHAR
STARTCHAR pi
ENCODING 960
SWIDTH 555 0
DWIDTH 4 0
BBX 5 5 0 0
BITMAP
233310
CFEE40
3D6A00
3D6A00
3D6A00
ENDCHAR
STARTCHAR Wgrave
ENCODING 7808
SWIDTH 819 0
DWIDTH 7 0
BBX 7 8 0 0
BITMAP
00500000
01A50000
56380910
894D0F10
894D0F10
894D0F10
7A6D3F10
2DFCF900
ENDCHAR
STARTCHAR wgrave
ENCODING 7809
SWIDTH 756 0
DWIDTH 6 0
BBX 6 7 0 0
BITMAP
014000
03C100
211112
97886A
97886A
97896A
3EEEE4
ENDCHAR
STARTCHAR Wacute
ENCODING 7810
SWIDTH 819 0
DWIDTH 7 0
BBX 7 8 0 0
BITMAP
00023000
000B5000
56380910
894D0F10
894D0F10
894D0F10
7A6D3F10
2DFCF900
ENDCHAR
STARTCHAR wacute
ENCODING 7811
SWIDTH 756 0
DWIDTH 6 0
BBX 6 7 0 0
BITMAP
000320
001C30
211112
97886A
97886A
97896A
3EEEE4
ENDCHAR
STARTCHAR Wdieresis
ENCODING 7812
SWIDTH 819 0
DWIDTH 7 0
BBX 7 8 0 0
BITMAP
00211000
00955000
56380910
894D0F10
894D0F10
894D0F10
7A6D3F10
2DFCF900
ENDCHAR
STARTCHAR wdieresis
ENCODING 7813
SWIDTH 756 0
DWIDTH 6 0
BBX 6 6 0 0
BITMAP
002200
22A932
97886A
97886A
97896A
3EEEE4
ENDCHAR
STARTCHAR Ygrave
ENCODING 7922
SWIDTH 620 0
DWIDTH 5 0
BBX 5 8 0 0
BITMAP
050000
0A6000
730470
C506B0
A808A0
3EDE30
02F200
01F100
ENDCHAR
STARTCHAR ygrave
ENCODING 7923
SWIDTH 562 0
DWIDTH 5 0
BBX 5 9 0 -2
BITMAP
140000
2C2000
210300
A60F10
A60F10
982F10
2DFF10
04BC00
057100
ENDCHAR
STARTCHAR endash
ENCODING 8211
SWIDTH 418 0
DWIDTH 3 0
BBX 3 2 0 2
BITMAP
3550
5B90
ENDCHAR
STARTCHAR emdash
ENCODING 8212
SWIDTH 719 0
DWIDTH 6 0
BBX 6 2 0 2
BITMAP
355551
5BBBB3
ENDCHAR
STARTCHAR quoteleft
ENCODING 8216
SWIDTH 246 0
DWIDTH 2 0
BBX 2 3 0 3
BITMAP
32
97
33
ENDCHAR
STARTCHAR quoteright
ENCODING 8217
SWIDTH 245 0
DWIDTH 2 0
BBX 2 3 0 3
BITMAP
54
78
22
ENDCHAR
STARTCHAR quotesinglbase
ENCODING 8218
SWIDTH 264 0
DWIDTH 2 0
BBX 2 2 0 -1
BITMAP
8A
37
ENDCHAR
STARTCHAR quotedblleft
ENCODING 8220
SWIDTH 445 0
DWIDTH 4 0
BBX 4 3 0 3
BITMAP
3250
98E2
3361
ENDCHAR
STARTCHAR quotedblright
ENCODING 8221
SWIDTH 444 0
DWIDTH 4 0
BBX 4 3 0 3
BITMAP
5481
79D2
2230
ENDCHAR
STARTCHAR quotedblbase
ENCODING 8222
SWIDTH 463 0
DWIDTH 4 0
BBX 4 2 0 -1
BITMAP
8AE4
3782
ENDCHAR
STARTCHAR dagger
ENCODING 8224
SWIDTH 434 0
DWIDTH 3 0
BBX 4 8 0 -1
BITMAP
0520
0C50
BFF3
1D60
0C50
0C50
0C50
0A40
ENDCHAR
STARTCHAR daggerdbl
ENCODING 8225
SWIDTH 452 0
DWIDTH 4 0
BBX 4 8 0 -1
BITMAP
0520
0B60
AFF4
1C70
0B60
8ED3
3C81
0940
ENDCHAR
STARTCHAR bullet
ENCODING 8226
SWIDTH 354 0
DWIDTH 3 0
BBX 3 2 0 2
BITMAP
2A10
4D20
ENDCHAR
STARTCHAR ellipsis
ENCODING 8230
SWIDTH 789 0
DWIDTH 6 0
BBX 6 2 0 -1
BITMAP
896B5D
121203
ENDCHAR
STARTCHAR perthousand
ENCODING 8240
SWIDTH 998 0
DWIDTH 8 0
BBX 8 7 0 -1
BITMAP
3A235000
A68B2000
7CA90000
01B993B4
068C9A6A
0C1BC6D7
00000010
ENDCHAR
STARTCHAR guilsinglleft
ENCODING 8249
SWIDTH 403 0
DWIDTH 3 0
BBX 3 4 0 0
BITMAP
0690
5D20
5D30
0480
ENDCHAR
STARTCHAR guilsinglright
ENCODING 8250
SWIDTH 402 0
DWIDTH 3 0
BBX 3 4 0 0
BITMAP
6900
1B80
1C80
5700
ENDCHAR
STARTCHAR fraction
ENCODING 8260
SWIDTH 477 0
DWIDTH 4 0
BBX 4 6 0 0
BITMAP
0016
0094
02A0
0A30
4900
B200
ENDCHAR
STARTCHAR Euro
ENCODING 8364
SWIDTH 806 0
DWIDTH 6 0
BBX 6 7 0 -1
BITMAP
002895
02EA8B
5EFD00
5DC700
48F714
007FFB
000010
ENDCHAR
STARTCHAR trademark
ENCODING 8482
SWIDTH 606 0
DWIDTH 5 0
BBX 5 3 0 3
BITMAP
375720
066750
022320
ENDCHAR
STARTCHAR partialdiff
ENCODING 8706
SWIDTH 609 0
DWIDTH 5 0
BBX 5 7 0 0
BITMAP
001000
01D500
018D00
3ECF40
A70980
991B60
2CFB00
ENDCHAR
STARTCHAR product
ENCODING 8719
SWIDTH 632 0
DWIDTH 5 0
BBX 5 6 0 0
BITMAP
699970
5F9F60
0F3F10
0F3F10
0F3F10
0F3F10
ENDCHAR
STARTCHAR minus
ENCODING 8722
SWIDTH 543 0
DWIDTH 4 0
BBX 4 2 0 2
BITMAP
3554
5BB9
ENDCHAR
STARTCHAR infinity
ENCODING 8734
SWIDTH 771 0
DWIDTH 6 0
BBX 6 5 0 0
BITMAP
054350
6DEEC9
977B4C
4EEDF6
011010
ENDCHAR
STARTCHAR approxequal
ENCODING 8776
SWIDTH 476 0
DWIDTH 4 0
BBX 4 4 0 1
BITMAP
1532
7CE3
4973
68B2
ENDCHAR
STARTCHAR notequal
ENCODING 8800
SWIDTH 512 0
DWIDTH 4 0
BBX 4 6 0 0
BITMAP
0021
12C5
8EF9
5BC6
5F85
2800
ENDCHAR
STARTCHAR fi
ENCODING 64257
SWIDTH 650 0
DWIDTH 5 0
BBX 5 7 0 0
BITMAP
003100
1CDAD0
5D3460
BFDEC0
4C04C0
4C04C0
4C04C0
ENDCHAR
STARTCHAR fl
ENCODING 64258
SWIDTH 631 0
DWIDTH 5 0
BBX 5 7 0 0
BITMAP
003420
1CDDA0
5D37A0
BFD7A0
4C06A0
4C06A0
4C06A0
ENDCHAR
STARTCHAR .notdef
ENCODING -1
SWIDTH 279 0
DWIDTH 2 0
BBX 1 1 0 0
BITMAP
00
ENDCHAR
STARTCHAR .null
ENCODING -1
SWIDTH 0 0
DWIDTH 0 0
BBX 1 1 0 0
BITMAP
00
ENDCHAR
STARTCHAR nonmarkingreturn
ENCODING -1
SWIDTH 279 0
DWIDTH 2 0
BBX 1 1 0 0
BITMAP
00
ENDCHAR
ENDFONT
